<svg xmlns="http://www.w3.org/2000/svg" viewBox="0 0 720 440" role="img" aria-labelledby="title desc">
  <title id="title">Vantage Architecture Placeholder</title>
  <desc id="desc">Block diagram illustrating ingest, processing, and output stages.</desc>
  <rect width="720" height="440" rx="32" fill="#0b0d10" />
  <g fill="#1b1f24" stroke="#3c444d" stroke-width="2">
    <rect x="48" y="80" width="180" height="120" rx="16" />
    <rect x="270" y="80" width="180" height="120" rx="16" />
    <rect x="492" y="80" width="180" height="120" rx="16" />
    <rect x="160" y="256" width="180" height="120" rx="16" />
    <rect x="380" y="256" width="180" height="120" rx="16" />
  </g>
  <g fill="#e7eaee" font-family="'Inter','Segoe UI',sans-serif" font-size="24" font-weight="600">
    <text x="68" y="152">CSI Ingest</text>
    <text x="296" y="152">Denoise</text>
    <text x="516" y="152">Pose Core</text>
    <text x="188" y="328">Analytics</text>
    <text x="416" y="328">ATAK / API</text>
  </g>
  <g stroke="#1e57c8" stroke-width="4" stroke-linecap="round">
    <line x1="228" y1="140" x2="270" y2="140" />
    <line x1="450" y1="140" x2="492" y2="140" />
    <line x1="210" y1="200" x2="210" y2="256" />
    <line x1="510" y1="200" x2="510" y2="256" />
  </g>
  <g fill="#b8bdc5" font-family="'Inter','Segoe UI',sans-serif" font-size="16">
    <text x="54" y="110">AX210 / Passive Wi-Fi</text>
    <text x="272" y="110">Filtering</text>
    <text x="502" y="110">Pose Network</text>
    <text x="170" y="286">Behavior Flags</text>
    <text x="396" y="286">Mission Feeds</text>
  </g>
</svg>
