<svg xmlns="http://www.w3.org/2000/svg" viewBox="0 0 128 128" role="img" aria-labelledby="title desc">
  <title id="title">Ceradon Systems Favicon</title>
  <desc id="desc">Shield crest with Ceradon blue strikes</desc>
  <defs>
    <linearGradient id="favShield" x1="0%" y1="0%" x2="100%" y2="100%">
      <stop offset="0%" stop-color="#101728" />
      <stop offset="100%" stop-color="#05070d" />
    </linearGradient>
    <linearGradient id="favEdge" x1="24%" y1="12%" x2="84%" y2="88%">
      <stop offset="0%" stop-color="#223044" />
      <stop offset="100%" stop-color="#121a2c" />
    </linearGradient>
    <linearGradient id="favStripe" x1="0%" y1="0%" x2="100%" y2="0%">
      <stop offset="0%" stop-color="#2b78ff" />
      <stop offset="100%" stop-color="#56b7ff" />
    </linearGradient>
  </defs>
  <rect width="128" height="128" rx="24" fill="#03050a" />
  <path d="M64 14 22 32v48c0 46 30 82 42 88 12-6 42-42 42-88V32L64 14z" fill="url(#favShield)" stroke="url(#favEdge)" stroke-width="4" stroke-linejoin="round" />
  <path d="M64 26 30 40v38c0 34 22 60 34 66 12-6 34-32 34-66V40L64 26z" fill="#0b1220" opacity="0.7" />
  <path d="M86 52c-4-12-20-22-36-20-16 2-28 14-32 30l10 6c4-12 12-20 22-22 10-2 20 2 24 10l-20 12 28 6 12-10c2-2 2-6-2-12z" fill="#e6ebf5" />
  <circle cx="76" cy="60" r="4" fill="#07090f" />
  <circle cx="77" cy="59" r="1.5" fill="#f6f8fd" />
  <g fill="none" stroke="url(#favStripe)" stroke-linecap="round">
    <path d="M30 74c16 14 44 18 68 8" stroke-width="8" />
    <path d="M34 86c16 12 44 14 64 6" stroke-width="6" />
    <path d="M38 96c14 10 36 12 54 4" stroke-width="5" />
  </g>
</svg>
