<svg xmlns="http://www.w3.org/2000/svg" viewBox="0 0 256 256" role="img" aria-labelledby="title desc">
  <title id="title">Ceradon Shield Mark</title>
  <desc id="desc">Shield emblem with stylised eagle wings in Ceradon blue</desc>
  <defs>
    <linearGradient id="shieldGradient" x1="0%" y1="0%" x2="100%" y2="100%">
      <stop offset="0%" stop-color="#1e57c8" />
      <stop offset="100%" stop-color="#0d2d73" />
    </linearGradient>
  </defs>
  <rect width="256" height="256" rx="32" fill="#0b0d10" />
  <path fill="url(#shieldGradient)" d="M128 32 64 56v74c0 52 33.4 90.2 64 94 30.6-3.8 64-42 64-94V56L128 32z" />
  <path fill="#e7eaee" d="M92 104c18 8 26 12 36 12s18-4 36-12l12 18c-20 10-32 14-48 14s-28-4-48-14l12-18z" opacity="0.85" />
  <path fill="#b8bdc5" d="M128 70c-18 0-36 6-48 12l10 18c14-8 24-12 38-12s24 4 38 12l10-18c-12-6-30-12-48-12z" />
  <path fill="#e7eaee" d="M128 138c-10 0-20-2-30-6l-10 16c14 8 26 12 40 12s26-4 40-12l-10-16c-10 4-20 6-30 6z" opacity="0.75" />
</svg>
