<svg xmlns="http://www.w3.org/2000/svg" viewBox="0 0 640 160" role="img" aria-labelledby="title desc">
  <title id="title">Ceradon Systems Horizontal Logo</title>
  <desc id="desc">Shield icon left of Ceradon Systems wordmark</desc>
  <defs>
    <linearGradient id="shieldGradient" x1="0%" y1="0%" x2="100%" y2="100%">
      <stop offset="0%" stop-color="#1e57c8" />
      <stop offset="100%" stop-color="#0d2d73" />
    </linearGradient>
  </defs>
  <rect width="640" height="160" rx="24" fill="#0b0d10" />
  <g transform="translate(32 24) scale(0.6)">
    <path fill="url(#shieldGradient)" d="M160 16 64 48v92c0 64.8 41.4 112.6 96 119 54.6-6.4 96-54.2 96-119V48L160 16z" />
    <path fill="#e7eaee" d="M112 108c26 12 38 16 48 16s22-4 48-16l16 24c-28 14-44 18-64 18s-36-4-64-18l16-24z" opacity="0.85" />
    <path fill="#b8bdc5" d="M160 56c-24 0-48 8-64 16l14 24c20-10 34-14 50-14s30 4 50 14l14-24c-16-8-40-16-64-16z" />
    <path fill="#e7eaee" d="M160 156c-14 0-28-3-40-8l-14 22c18 10 36 14 54 14s36-4 54-14l-14-22c-12 5-26 8-40 8z" opacity="0.75" />
  </g>
  <text x="200" y="80" fill="#e7eaee" font-family="'Inter', 'Segoe UI', sans-serif" font-size="56" font-weight="700" letter-spacing="4">
    CERADON
  </text>
  <text x="200" y="120" fill="#b8bdc5" font-family="'Inter', 'Segoe UI', sans-serif" font-size="28" letter-spacing="8">
    SYSTEMS
  </text>
</svg>
